<svg xmlns="http://www.w3.org/2000/svg" viewBox="0 0 32 32" width="32px" height="32px" baseProfile="basic"><path fill="#79b5ba" d="M28,16c0-1.081-0.156-2.123-0.424-3.12l2.048-1.282l-3-5.196L24.499,7.53 c-1.473-1.478-3.335-2.562-5.413-3.114L19,2h-6l-0.086,2.416C10.836,4.968,8.974,6.051,7.501,7.53L5.376,6.402l-3,5.196l2.048,1.282 C4.156,13.877,4,14.919,4,16s0.156,2.123,0.424,3.12l-2.048,1.282l3,5.196l2.125-1.128c1.473,1.478,3.335,2.562,5.413,3.114L13,30h6 l0.086-2.416c2.078-0.553,3.939-1.636,5.413-3.114l2.125,1.128l3-5.196l-2.048-1.282C27.844,18.123,28,17.081,28,16z"/><path fill="#fff" d="M16,23c-3.86,0-7-3.14-7-7s3.14-7,7-7s7,3.14,7,7S19.86,23,16,23z M16,10c-3.309,0-6,2.691-6,6 s2.691,6,6,6s6-2.691,6-6S19.309,10,16,10z"/><path fill="#302529" d="M19.965,31h-7.93l-0.095-2.662c-1.706-0.56-3.275-1.462-4.604-2.648l-2.344,1.244l-3.965-6.867 l2.257-1.413C3.095,17.763,3,16.873,3,16s0.095-1.763,0.284-2.653l-2.257-1.413l3.965-6.867L7.336,6.31 c1.329-1.186,2.898-2.089,4.604-2.648L12.035,1h7.93l0.095,2.662c1.705,0.56,3.275,1.462,4.604,2.648l2.344-1.244l3.965,6.867 l-2.257,1.413C28.905,14.237,29,15.127,29,16s-0.095,1.763-0.284,2.653l2.257,1.413l-3.965,6.867l-2.344-1.244 c-1.329,1.186-2.898,2.089-4.604,2.648L19.965,31z M13.965,29h4.07l0.079-2.191l0.716-0.19c1.884-0.501,3.6-1.488,4.961-2.854 l0.523-0.524l1.927,1.023l2.035-3.525l-1.857-1.163l0.192-0.714C26.869,17.897,27,16.935,27,16s-0.131-1.897-0.39-2.86l-0.192-0.714 l1.857-1.163l-2.035-3.525L24.313,8.76l-0.522-0.524c-1.362-1.366-3.078-2.353-4.961-2.854l-0.716-0.19L18.035,3h-4.07l-0.079,2.191 l-0.716,0.19c-1.884,0.501-3.6,1.488-4.961,2.854L7.687,8.76L5.759,7.737l-2.035,3.525l1.857,1.163L5.39,13.14 C5.131,14.103,5,15.065,5,16s0.131,1.897,0.39,2.86l0.192,0.714l-1.857,1.163l2.035,3.525l1.927-1.023l0.523,0.524 c1.361,1.366,3.077,2.353,4.961,2.854l0.716,0.19L13.965,29z"/></svg>